<svg id="Bu_Endar" data-name="Bu Endar" xmlns="http://www.w3.org/2000/svg" width="837" height="1143" viewBox="0 0 837 1143">
  <metadata><?xpacket begin="﻿" id="W5M0MpCehiHzreSzNTczkc9d"?>
<x:xmpmeta xmlns:x="adobe:ns:meta/" x:xmptk="Adobe XMP Core 5.6-c138 79.159824, 2016/09/14-01:09:01        ">
   <rdf:RDF xmlns:rdf="http://www.w3.org/1999/02/22-rdf-syntax-ns#">
      <rdf:Description rdf:about=""/>
   </rdf:RDF>
</x:xmpmeta>
                                                                                                    
                                                                                                    
                                                                                                    
                                                                                                    
                                                                                                    
                                                                                                    
                                                                                                    
                                                                                                    
                                                                                                    
                                                                                                    
                                                                                                    
                                                                                                    
                                                                                                    
                                                                                                    
                                                                                                    
                                                                                                    
                                                                                                    
                                                                                                    
                                                                                                    
                                                                                                    
                           
<?xpacket end="w"?></metadata>
<defs>
    <style>
      .cls-1 {
        fill: #fff;
      }

      .cls-2 {
        fill: #746c79;
      }

      .cls-10, .cls-11, .cls-12, .cls-13, .cls-14, .cls-15, .cls-2, .cls-3, .cls-4, .cls-5, .cls-6, .cls-7, .cls-8, .cls-9 {
        fill-rule: evenodd;
      }

      .cls-3 {
        fill: #8b8191;
      }

      .cls-4 {
        fill: #251516;
      }

      .cls-5 {
        fill: #ffb69b;
      }

      .cls-6 {
        fill: #f09b87;
      }

      .cls-7 {
        fill: #ee9283;
      }

      .cls-8 {
        fill: #978791;
      }

      .cls-9 {
        fill: #ffd2bb;
      }

      .cls-10 {
        fill: #d56861;
      }

      .cls-12 {
        fill: #762b4c;
      }

      .cls-13 {
        fill: #ffe1d1;
      }

      .cls-14 {
        fill: #a68346;
      }

      .cls-15 {
        fill: #997a44;
      }
    </style>
  </defs>
  <ellipse id="Ellipse_13_copy_5" data-name="Ellipse 13 copy 5" class="cls-1" cx="422.5" cy="566.5" rx="397.5" ry="431.5"/>
  <path class="cls-2" d="M178,814s-1-6,1-8,6-.5,17-4,21-9.5,30-13,10.5-6,14-5,8.5,4.5,12,1,14-13,14-13,4.5-8.5,7-12,9.5-13.5,12-15,5-12.5,2-17-11-19-13-26,0-22,0-22-4.5-2.5-6-6,1.25-18.25,0-21-3.5-8.25-4-12,3.75-38.75,5-44,7-12.25,7-14,1-22-3-32-9.25-23.75-9-45,1.25-18.75,3-22,6.5-1.75,8-31,5.25-34.5,8-45,6.5-27.25,23-45,23-22,34-30,29.5-18.25,35-20,37.214-3.788,47-3,48.19,9.778,67,23,35.175,33.653,42,43,9.238,9.03,10,21,2.381,15.082,6,23,8.2,20.889,8,24,2.571,14.868,5,24,2.651,26.261,5,30,5.929,24.738,5,37-2.4,34.089-4,42-9.786,31.576-10,35,2.738,7.749,2,11-2,21.927-1,26,3.309,46.808,4,53,4.357,7.164,4,10-0.222,9.844,5,12,19.587,6.494,22,9,9.167,5.064,16,6,17.77,7.53,31,11,25.4,6.133,31,8,12.127,13.279,16,20,4.722,8.756,15,7,11.389-5.228,16-3,30.048,25.013,30,29S678,935,550,976s-235,19-292-17-33-19-33-19S185.5,835,178,814Z"/>
  <path class="cls-3" d="M517.191,781c-0.962-.794.127,36.51-3.4,40.9-3.645,4.29-9.488,11.412-20.172,11.86-1.329.061-2.923,0.054-4.728-.019q-0.678-.027-1.393-0.067t-1.467-.092c-1-.069-2.05-0.154-3.137-0.256-4.347-.4-9.322-1.061-14.463-1.924-10.293-1.736-21.178-4.242-29.11-7.277s-11.426-4.271-13.031-4.828c-0.8-.274-1.111-0.368-1.226-0.394a0.254,0.254,0,0,0-.054-0.009c-0.008,0-.008,0,0,0.007a0.12,0.12,0,0,0,.027.017c-0.34-.28,34.962,6.067,42.709,6.341,7.453,0.032,26.6-.046,30.529-2.77,2.007-1.327,7.7-6.672,12.106-14.455a55.667,55.667,0,0,0,5.413-12.97,45.37,45.37,0,0,0,1.339-7.049c0.124-1.18.2-2.359,0.209-3.529q0.009-.879-0.026-1.75T517.191,781h0ZM278,602s13,63,21,74,51.333,62.667,62,71,60,42,60,42-85.667-49.333-100-64-28-31-30-35S277,623,278,602Z"/>
  <path class="cls-3" d="M286,725s11,43.667,47,98,36,53,36,53,24.667,37.333,31,43,20,19,20,19S288,727.333,286,725Z"/>
  <path class="cls-3" d="M286,753s25.667,113,28,124,23.333,105.667,23,109-40.333-129.333-42-140S283,755,286,753Z"/>
  <path class="cls-3" d="M277,766a84.834,84.834,0,0,0-5,36c1.667,20,5,36.667,5,38s-7-8-12-18-7.667-20.667-7-27S271.333,770.333,277,766Z"/>
  <path class="cls-3" d="M282,590s22,63,36,81,10,12,10,12-13-36-17-47S286.5,592,282,590Z"/>
  <path class="cls-3" d="M566,510s-6.5,87-14,107,2-46,2-54S566,510,566,510Z"/>
  <path class="cls-4" d="M427,944s-32.5-27-40-37-67.5-99-71-106-22.5-39-26-57-6.5-20.5-8-24,8,6,8,6,10.5,42,25,66,68,102,73,109S423.5,944,427,944Zm-90,44s-33.5-149-35-159-11-50.5-12-53-7-20.5-6-25,3.5,2,4,6,15,56.5,16,62,24,115,24,115S342.5,993,337,988ZM278,763a59.927,59.927,0,0,0-4,28c1.5,16,5,47.5,6,50s0,5.5-3,2S262,770,278,763Zm-2-164s5.5,6,9,19,13,50,17,57,43.5,52.5,57,66,51.5,40.5,63,43-2,5-2,5-45.5-27-68-50-49-55-54-62-17-58-17-58S277,601,276,599Zm3-16c3.71-4.328,27.5,65.5,29,69s23,35.5,32,43,8,11,8,11-17-16.5-25-26-17-24-21-33S276,586.5,279,583Zm285-76s-1,39-3,51-14,61-14,61h5s12.5-60,13-67S568.5,503,564,507ZM418,816s38,7,52,6,21.5-2.5,26-6,14.5-10.5,18-26,3-15,3-15l-3,26s-7.5,16.5-13,19-22.5,8-36,7S422.5,817.5,418,816Z"/>
  <path class="cls-5" d="M301,561s12.5,88,29,111,22,29,36,36,44.5,17,55,17,43-1.5,66-21,35.5-24.5,43-51,15.5-64,16-76,1.5-59,0-68-12.5-38-22-49-31-28-36-32-71.5-44-111-23-46,33.5-51,39-26,42-31,47S301,561,301,561Z"/>
  <path class="cls-6" d="M411.93,496.167s-4.662,44.119-18.981,54.437-21.312,11.03-23.976,11.742S343,563.413,343,563.413s54.278-.712,54.944-2.135-5.661,9.963-5.994,13.876,2.664,14.944,8.991,17.079,4.329-.712,5-2.135,4.662-8.183,7.992-6.4,4.661,5.692,5.993,6.4,14.319,1.779,15.984-1.067,5.661-8.184,7.992-8.54,9.324,6.049,8.991,7.472,4,3.914,5,2.135,7.326-10.318,5.994-13.876-5.994-12.809-5.994-12.809-3-3.558,2-5.337,32.966-7.472,35.963-9.607-39.626,2.491-48.95-6.4-22.977-45.542-24.975-45.9S411.93,496.167,411.93,496.167Z"/>
  <path class="cls-7" d="M380,505s-0.333-32-5-36-14.333-7.667-19-6-8.667,8.333-7,11,12.333,15.333,16,19S378,505,380,505Z"/>
  <path class="cls-7" d="M519.991,673.991c1.439,3.793-46.487,37.957-59.1,38.41-11.618,2.066-51.932,6.057-60.56,4.428-8.674-1.673-24.389-5.035-28.052-7.02l-0.239-.13L372,709.655c-0.006,0,0,0,.007,0l0.5,0.251c0.578,0.289,1.624.81,3.04,1.49,2.831,1.361,7.142,3.358,12.123,5.393a145.064,145.064,0,0,0,16.155,5.619c5.527,1.516,10.936,2.481,15.435,2.316,9-.316,15-0.245,20.626-0.73a75.535,75.535,0,0,0,18.516-4.057c15.386-5.067,53.088-29.239,61.586-45.947h0Z"/>
  <path class="cls-8" d="M279,506s20.323-17.347,27.99-31.037,19.351-34.091,27.04-41.154c7.671-7.025,39.789-29.342,45.15-31.41,5.349-2.041,24.4-7.854,43.025-3.1s56.143,18.716,75.751,35.508,41.262,32.481,42.926,35.155c0.832,1.335,3.664,2,6.12,2.255a19.516,19.516,0,0,0,3.108.095,2.905,2.905,0,0,0,.787-0.129,0.13,0.13,0,0,0,.1-0.1,0.19,0.19,0,0,0-.126-0.117c-1.334-.664-18.318-19.7-21.974-25.06-3.717-5.222-43.463-66.136-72.431-81.264-14.542-7.435-24.448-12.972-32.472-16.6a65.594,65.594,0,0,0-10.968-4.008,38.308,38.308,0,0,0-5.071-.928q-1.265-.141-2.544-0.194-0.642-.027-1.289-0.03t-1.3.015c-14.012.375-30.509,5.091-52.432,24.034-21.895,18.88-23.564,24.891-28.284,34.69-4.709,9.776-9.74,20.861-16.091,34.252S296.663,462.948,294,469.96a139,139,0,0,1-9,19.023c-4,7.341-3.332,15.682-6,17.017h0Z"/>
  <path class="cls-4" d="M364.882,357.621c-0.1-.053,22.38-11.936,26.82-12.538,4.467-.586,19.02-2.779,29.385,2.274,10.432,5.091,38.051,21.167,45.01,26.173a2.664,2.664,0,0,0,.816.476c0.115,0.011.078-.122-0.092-0.378a31.264,31.264,0,0,0-2.469-2.889c-2.513-2.728-6.562-6.867-10.969-11.259-8.814-8.784-19.07-18.589-21.229-20.094-4.349-3.026-19.608-10.7-22.889-11.015-0.829-.083-2.217-0.248-3.9-0.325-0.421-.019-0.861-0.033-1.315-0.039s-0.924,0-1.4.01a29.5,29.5,0,0,0-2.974.228c-4.048.534-8.293,2.071-10.675,5.96-4.79,7.763-20.864,21.368-24.113,23.416h0Z"/>
  <path class="cls-4" d="M531,470s9.25,0.25,10,1-32.5-28.5-36-31-4-2-4-2,20.5,18.25,22,20S530.5,468,531,470ZM282,504s11.25-5,12-5,0-7,0-7S283.5,501,282,504Z"/>
  <path class="cls-5" d="M405,595s-10-2.333-11-8-2.667-15.333,3-22,16-17.667,21-26,5-10.333,6-16,2-14,2-14-0.333,12,15,32,22.333,32.667,22,37-2,12.667-4,13-5,0-6-1-3.667-6.333-5-7-8,.333-10,4-14.333,6-16,4-6.333-6.333-8-6-8.667,3.667-8,5S407,595.333,405,595Z"/>
  <path class="cls-7" d="M454,517s28,0.667,30-1,5-1.667,10-5-12.333,9-15,9S457,518.667,454,517Zm-74,2s-17.667,9.667-20,10-9.667,2.333-11,2,11.333,0.667,15-1S380,519,380,519Z"/>
  <path class="cls-7" d="M452,503s-5.333-11.333-5-18,2-21.333,7-26,12.667-8.333,19-7,5.333,9.667,3,15-6.667,14.667-7,17S454,503,452,503Z"/>
  <path class="cls-9" d="M430,528s27,37,27,39,3,7.667,2,12-2,6.667-4,7-6.667-6.333-8-7-4-.333-5,0S432.667,527.667,430,528Z"/>
  <path class="cls-9" d="M482,487s9.3,7.965,0,17c-12.238,11.89-20.687-9.389-17-13,0,0-13.333,14-14,20s5-.333,7,0,23,0.333,26-2,26.667-10.667,26-13S487.333,487,482,487ZM349,501s-3.935,8.553,2,14c11.06,10.151,20.958-6.853,16-13,0,0,17.333,6,16,9s-11.333,6.333-13,7-14,5.333-18,5-15.667-4.667-19-5-4-1-4-1S335.667,504.667,349,501Z"/>
  <path class="cls-10" d="M380,641s23-14.333,24-15,7.667-3.667,12-3,11,5,11,5,11-6.667,14-7,7-1,9,0,22,12,25,13-16,19.333-26,23-35.333,5.667-38,4S382,649,380,641Z"/>
  <path class="cls-7" d="M390,643s33-4.667,38-5,24.667-2.333,26-2,6.667,4.333,4,6-24.667,10.667-33,11S391,649,390,643Z"/>
  <path class="cls-11" d="M380.723,639.713c-0.437,1.5,92.08-3.942,88.519-9.113a0.744,0.744,0,0,1-.03-0.583,0.616,0.616,0,0,1,.386.325c0.091,0.114.192,0.253,0.3,0.409L470.057,631c0.054,0.085.109,0.173,0.163,0.263,0.22,0.361.435,0.753,0.62,1.13a7.751,7.751,0,0,1,.857,2.67c0.2,0.057-20.463,3.072-42.721,4.807-11.031.9-22.188,1.4-30.653,1.321-4.237-.025-7.811-0.169-10.429-0.323-1.31-.076-2.382-0.152-3.18-0.214s-1.325-.11-1.54-0.135a6.991,6.991,0,0,1-2.534-.5,0.2,0.2,0,0,1-.048-0.057,0.115,0.115,0,0,1-.016-0.054,0.169,0.169,0,0,1,.037-0.1,0.4,0.4,0,0,1,.11-0.093h0Z"/>
  <ellipse cx="357.5" cy="507" rx="10.5" ry="11"/>
  <ellipse id="Ellipse_2_copy" data-name="Ellipse 2 copy" cx="475.5" cy="496" rx="10.5" ry="11"/>
  <path class="cls-12" d="M299,505c-2.333,6.667-2.667,10.333-1,19s6.333,23.333,10,27,16.667,7.667,22,8,37.667-.333,47-6,13.667-5,19-20,8-29.667,6-32-5.333-10.667-17-11-49,1-53,2-15,2.667-24,8-9,5-9,5h0Zm137-14a22.944,22.944,0,0,0-1,13c1.667,6.667,8,30.333,16,34s12,4.667,17,5,38-1,44-3,20.333-8,23-13,6.667-31.667,4-39-3-11-12-12-30-3-43-1-44.667,10.667-46,13A16.207,16.207,0,0,1,436,491ZM277,508s0,14,2,15,7,1.667,10,6,6.667,22.667,11,26,7.667,4.333,11,6,21,4.667,34,4,41.333-2,49-14,15-27.333,16-38,0-11.667,4-12,5.333-1.667,7,1,9.667,20,14,28,9,14.333,18,17,25.333,4.333,32,4,32.333-3.333,43-11,12.333-12,14-15,6.333-22.667,7-24,5.333-7.333,7-7,3-15.667,1-17-13.667-4.667-24-6-35.667-4.333-43-4-37.667,7.333-42,9-21,11.667-24,13-14,2-14,2-24.333-7.333-28-8-38.667-2.667-63,6S277.333,506.667,277,508Z"/>
  <path class="cls-6" d="M475,519"/>
  <path class="cls-11" d="M450,511s8.5-17.5,19-22,10.5-3,17-2,19.5,6.5,25,10,5-3,5-3-26.5-9-30-10-11-1-15,1-11.5,6.5-14,10S447,506.5,450,511Zm11,0a108.938,108.938,0,0,0,20-2c9-2,23-9,23-9s-9.5,7.5-12,9-15.5,4.5-20,5-17,0-17,0S456.5,511,461,511Zm-133,6s10-11.5,15-14,12.5-5,18-4,15.5,6.5,20,11,7,1,7,1-13.5-12-19-14-11.5-.5-14-1-12.5,3.5-17,7S322.5,517,328,517Zm8,1s12.5,5.5,17,5,28-8,28-8l-19,9-13,3-18-9h5Zm-11-40s21-12,35-10a115.083,115.083,0,0,1,24,6s1-.333,1-5-0.333-5.333-4-7-24-7.333-30-5-16.333,7-19,10S325,478,325,478Zm114-7s-2.667-9.667,0-12,26.667-13,31-13,11.333,0,17,1,6,10,6,10-16-3.667-20-2S440.667,466.333,439,471ZM406,590s11.75-1,12-2-1.75-3.75-4-4S407.75,586,406,590Zm32-3s8.5-2.25,12,1,0.5-4.25-2-6S438,583.75,438,587Zm-38-27s-15.25,25.5,2,33-9-5-9-5-3-3.75-2-13S399,561.5,400,560Zm56,1s11.25,16.75,4,26,6-6.25,6-9S456,561,456,561Zm102-66s-7.5.5-9,7-4,15.75-4,19,1.75,10,2,15-4,46.25-5,55S559,503.25,558,495ZM279,523s5.25,1.75,8,4,4.75,7.25,7,14a158.092,158.092,0,0,1,7,32c1.75,14.75,7,43,7,43S277.75,524.25,279,523Z"/>
  <path class="cls-13" d="M439.669,546s12.11,14.607,13.973,18.781,3.105,10.135,1.863,12.52-7.141-2.086-7.452-2.683a3.278,3.278,0,0,0-2.794-1.788C443.706,572.83,436.875,546,439.669,546Z"/>
  <path class="cls-14" d="M130,856s43.5-48.5,47-41,54.5,128.5,46,123S154,893.5,130,856Z"/>
  <path class="cls-15" d="M138.983,866c-0.353-.519,38.65-43.638,39.92-45a5.985,5.985,0,0,0,.1-1.1c0.007-.417-0.011-0.877-0.047-1.358-0.072-.964-0.215-2.015-0.372-2.985-0.314-1.941-.68-3.553-0.68-3.553,0.191,0.281-28.153,20.23-32.589,26.044C140.5,843.3,130.084,857.124,130,857c2.926,2.9,5.949,5.942,8.983,9h0Z"/>
</svg>
